<?xml version="1.0" standalone="no"?>
<!DOCTYPE svg PUBLIC "-//W3C//DTD SVG 20010904//EN"
 "http://www.w3.org/TR/2001/REC-SVG-20010904/DTD/svg10.dtd">
<svg version="1.0" xmlns="http://www.w3.org/2000/svg"
 width="1280.000000pt" height="1176.000000pt" viewBox="0 0 1280.000000 1176.000000"
 preserveAspectRatio="xMidYMid meet">
<metadata>
Created by potrace 1.15, written by Peter Selinger 2001-2017
</metadata>
<g transform="translate(0.000000,1176.000000) scale(0.100000,-0.100000)"
fill="#000000" stroke="none">
<path d="M6300 11473 c-365 -10 -869 -37 -1370 -73 -529 -39 -1860 -155 -1887
-165 -26 -9 -589 -368 -604 -385 -11 -13 -19 -59 -28 -171 -56 -725 -52 -1520
14 -2819 9 -162 16 -323 18 -358 l2 -63 -530 -281 c-291 -154 -559 -294 -595
-310 -283 -132 -488 -432 -570 -835 -90 -448 -2 -942 227 -1260 l54 -75 88
-352 c302 -1194 428 -1962 463 -2808 9 -224 9 -354 -1 -576 -6 -158 -14 -306
-18 -330 l-6 -42 4927 0 c4919 0 4926 0 4926 20 0 19 7 20 91 20 89 0 91 0 86
23 -15 61 -29 537 -24 792 20 873 151 1695 472 2962 82 323 85 334 129 392
132 180 226 434 256 693 18 152 8 443 -20 573 -58 271 -164 493 -314 653 -80
85 -152 135 -321 220 -77 38 -306 158 -510 266 l-370 196 3 97 c1 54 7 193 12
308 18 359 24 1241 11 1590 -18 496 -51 921 -101 1312 -11 85 -20 155 -20 157
0 2 -92 93 -205 201 l-206 198 -112 9 c-62 5 -465 38 -897 73 -1293 106 -1611
128 -2105 145 -251 9 -706 10 -965 3z"/>
</g>
</svg>
